<svg width="966px" height="966px" viewBox="0 0 966 966" xmlns="http://www.w3.org/2000/svg" style="background-color:#101820">
    <path d="
    M259.6,200
    L299.7,386.3
    L299.7,546.8
    L259.6,766
    L438.5,680
    L455.1,563.8
    L535.2,683.9
    L706.4,766
    L666.3,579.7
    L666.3,419.2
    L706.4,200
    L527.5,286
    L510.9,402.2
    L430.8,282.1
    Z
    M308,258
    L408,308
    L558,533
    L558,408
    L545.5,395.5
    L558,308
    L658,258
    L620.5,420.5
    L633,433
    L633,583
    L658,708
    L558,658
    L408,433
    L408,558
    L420.5,570.5
    L408,658
    L308,708
    L345.5,545.5
    L333,533
    L333,383
    Z" fill="white"/>
</svg>
