<svg viewBox="0 0 446.8 566" xmlns="http://www.w3.org/2000/svg">
    <path d="
    M0,0
    L40.1,186.3
    L40.1,346.8
    L0,566
    L178.9,480
    L195.5,363.8
    L275.6,483.9
    L446.8,566
    L406.7,379.7
    L406.7,219.2
    L446.8,0
    L267.9,86
    L251.3,202.2
    L171.2,82.1
    Z
    M48.4,58
    L148.4,108
    L298.4,333
    L298.4,208
    L285.9,195.5
    L298.4,108
    L398.4,58
    L360.9,220.5
    L373.4,233
    L373.4,383
    L398.4,508
    L298.4,458
    L148.4,233
    L148.4,358
    L160.9,370.5
    L148.4,458
    L48.4,508
    L85.9,345.5
    L73.4,333
    L73.4,183
    Z"/>
</svg>
